<svg id="visual" viewBox="0 0 1920 200" width="1920" height="200" xmlns="http://www.w3.org/2000/svg" xmlns:xlink="http://www.w3.org/1999/xlink" version="1.1"><rect x="0" y="0" width="1920" height="200" fill="#1a1a1a"></rect><path d="M0 60L35.5 67.7C71 75.3 142 90.7 213.2 98.7C284.3 106.7 355.7 107.3 426.8 97.3C498 87.3 569 66.7 640 62C711 57.3 782 68.7 853.2 79.5C924.3 90.3 995.7 100.7 1066.8 105C1138 109.3 1209 107.7 1280 93C1351 78.3 1422 50.7 1493.2 35.2C1564.3 19.7 1635.7 16.3 1706.8 18.5C1778 20.7 1849 28.3 1884.5 32.2L1920 36L1920 0L1884.5 0C1849 0 1778 0 1706.8 0C1635.7 0 1564.3 0 1493.2 0C1422 0 1351 0 1280 0C1209 0 1138 0 1066.8 0C995.7 0 924.3 0 853.2 0C782 0 711 0 640 0C569 0 498 0 426.8 0C355.7 0 284.3 0 213.2 0C142 0 71 0 35.5 0L0 0Z" fill="#414141" stroke-linecap="round" stroke-linejoin="miter"></path></svg>